<svg width="32" height="32" fill="none" xmlns="http://www.w3.org/2000/svg"><g clip-path="url(#a)" fill="#fff"><path d="M31.969 9.408c-.075-1.7-.35-2.87-.744-3.882a7.81 7.81 0 0 0-1.85-2.838A7.875 7.875 0 0 0 26.542.844C25.523.45 24.36.175 22.66.1 20.948.02 20.404 0 16.059 0c-4.344 0-4.888.019-6.595.094-1.7.075-2.869.35-3.882.744a7.808 7.808 0 0 0-2.838 1.85A7.879 7.879 0 0 0 .9 5.52C.506 6.539.231 7.7.156 9.402c-.081 1.713-.1 2.257-.1 6.601 0 4.345.019 4.889.094 6.595.075 1.7.35 2.87.744 3.882a7.891 7.891 0 0 0 1.85 2.838c.8.813 1.77 1.444 2.832 1.844 1.02.394 2.182.67 3.882.744 1.707.075 2.25.094 6.595.094s4.889-.019 6.595-.094c1.7-.075 2.87-.35 3.882-.744a8.184 8.184 0 0 0 4.682-4.682c.394-1.019.67-2.182.744-3.882.075-1.706.094-2.25.094-6.595s-.006-4.888-.081-6.595Zm-2.882 13.065c-.069 1.563-.331 2.407-.55 2.97a5.308 5.308 0 0 1-3.038 3.038c-.563.218-1.413.481-2.97.55-1.688.075-2.194.093-6.463.093-4.27 0-4.782-.018-6.464-.093-1.563-.069-2.407-.331-2.97-.55a4.925 4.925 0 0 1-1.837-1.194A4.975 4.975 0 0 1 3.6 25.449c-.22-.563-.482-1.413-.55-2.97-.076-1.687-.094-2.194-.094-6.463 0-4.27.018-4.783.094-6.464.068-1.563.33-2.407.55-2.97a4.864 4.864 0 0 1 1.2-1.837A4.968 4.968 0 0 1 6.639 3.55c.562-.22 1.413-.482 2.97-.55 1.687-.075 2.193-.094 6.463-.094 4.276 0 4.782.019 6.464.094 1.563.068 2.406.331 2.969.55a4.921 4.921 0 0 1 1.838 1.194 4.974 4.974 0 0 1 1.194 1.838c.219.562.481 1.412.55 2.969.075 1.688.094 2.194.094 6.464 0 4.27-.019 4.77-.094 6.457Z"/><path d="M16.06 7.783a8.222 8.222 0 0 0-8.221 8.22 8.222 8.222 0 0 0 8.22 8.22 8.222 8.222 0 0 0 8.22-8.22 8.222 8.222 0 0 0-8.22-8.22Zm0 13.552a5.333 5.333 0 1 1 .001-10.666 5.333 5.333 0 0 1-.002 10.666ZM26.524 7.458a1.92 1.92 0 1 1-3.839 0 1.92 1.92 0 0 1 3.839 0Z"/></g><defs><clipPath id="a"><path fill="#fff" d="M0 0h32v32H0z"/></clipPath></defs></svg>