<svg width="32" height="32" fill="none" xmlns="http://www.w3.org/2000/svg"><g clip-path="url(#a)" fill="#fff"><path d="M31.992 32v-.001H32V20.263c0-5.742-1.236-10.164-7.948-10.164-3.227 0-5.392 1.77-6.276 3.449h-.093v-2.913h-6.364v21.364h6.626V21.42c0-2.785.528-5.479 3.978-5.479 3.398 0 3.449 3.179 3.449 5.658V32h6.62ZM.528 10.636h6.635V32H.528V10.636ZM3.843 0A3.844 3.844 0 0 0 0 3.843C0 5.964 1.721 7.72 3.843 7.72c2.121 0 3.842-1.757 3.842-3.878A3.846 3.846 0 0 0 3.843 0Z"/></g><defs><clipPath id="a"><path fill="#fff" d="M0 0h32v32H0z"/></clipPath></defs></svg>